<?xml version="1.0" encoding="utf-8"?>
<!-- Generator: Adobe Illustrator 26.0.1, SVG Export Plug-In . SVG Version: 6.00 Build 0)  -->
<svg version="1.1" id="Layer_1" xmlns="http://www.w3.org/2000/svg" xmlns:xlink="http://www.w3.org/1999/xlink" x="0px" y="0px"
	 viewBox="0 0 261.8 67" style="enable-background:new 0 0 261.8 67;" xml:space="preserve">
<style type="text/css">
	.st0{fill:#005B93;}
	.st1{fill:#BCD631;}
	.st2{fill:#005A8E;}
	.st3{fill:#628895;}
	.st4{fill:#588798;}
	.st5{fill:#004A6E;}
	.st6{fill:#3F853F;}
	.st7{fill:#B75BA1;}
	.st8{fill:#062432;}
	.st9{fill:#C3D940;}
	.st10{fill:#005A3D;}
	.st11{fill:#0A2646;}
</style>
<g>
	<path class="st0" d="M94.7,31.7c1.5,1,2.5,2.4,3.1,4v-5.3h4.7v22.9c0,2.1-0.4,4-1.3,5.6c-0.9,1.6-2.1,2.9-3.7,3.9
		c-1.6,0.9-3.5,1.4-5.8,1.4c-3.2,0-5.8-0.8-7.7-2.3c-2-1.5-3.2-3.6-3.7-6.1H85c0.4,1.3,1.1,2.4,2.2,3.2c1.1,0.8,2.5,1.1,4.2,1.1
		c1.9,0,3.4-0.6,4.6-1.7c1.2-1.2,1.8-2.8,1.8-5v-5.5c-0.6,1.7-1.6,3-3.1,4c-1.5,1-3.2,1.5-5.3,1.5c-2,0-3.7-0.5-5.3-1.4
		c-1.6-0.9-2.8-2.3-3.6-4c-0.9-1.8-1.3-3.8-1.3-6.2c0-2.4,0.4-4.4,1.3-6.2c0.9-1.8,2.1-3.1,3.6-4c1.6-0.9,3.3-1.4,5.3-1.4
		C91.5,30.2,93.3,30.7,94.7,31.7z M85.9,36.3c-1.2,1.3-1.9,3.2-1.9,5.5c0,2.3,0.6,4.2,1.9,5.5c1.2,1.3,2.9,2,5,2
		c1.3,0,2.5-0.3,3.5-0.9c1-0.6,1.9-1.5,2.5-2.6c0.6-1.1,0.9-2.4,0.9-4c0-1.5-0.3-2.8-0.9-3.9c-0.6-1.1-1.4-2-2.5-2.6
		c-1-0.6-2.2-0.9-3.5-0.9C88.8,34.3,87.2,35,85.9,36.3z"/>
	<path class="st0" d="M129.9,42.8h-17.5c0.1,2.3,0.7,4.1,1.9,5.2c1.2,1.1,2.7,1.7,4.5,1.7c1.6,0,2.9-0.4,4-1.2
		c1.1-0.8,1.8-1.9,2-3.2h5c-0.3,1.6-0.9,3-1.9,4.2c-1,1.2-2.2,2.2-3.7,2.9c-1.5,0.7-3.3,1.1-5.1,1.1c-2.2,0-4.1-0.5-5.8-1.4
		c-1.7-0.9-3-2.3-4-4c-1-1.8-1.4-3.8-1.4-6.2c0-2.4,0.5-4.4,1.4-6.2c1-1.8,2.3-3.1,4-4c1.7-0.9,3.6-1.4,5.8-1.4
		c2.2,0,4.2,0.5,5.8,1.4c1.7,0.9,2.9,2.2,3.8,3.8c0.9,1.6,1.3,3.4,1.3,5.4C130.1,41.5,130,42.2,129.9,42.8z M124.6,36.9
		c-0.6-1-1.3-1.7-2.3-2.2c-1-0.5-2-0.7-3.2-0.7c-1.8,0-3.4,0.6-4.6,1.7c-1.2,1.1-1.9,2.8-2,5h12.9C125.4,39.2,125.1,37.9,124.6,36.9
		z"/>
	<path class="st0" d="M155.3,32.7c1.6,1.7,2.4,4.1,2.4,7.3v13.2H153V40.5c0-2-0.5-3.6-1.6-4.7c-1-1.1-2.5-1.7-4.3-1.7
		c-1.9,0-3.4,0.6-4.5,1.8c-1.1,1.2-1.7,2.9-1.7,5.3v12.1h-4.7V30.5h4.7v5c0.6-1.7,1.6-3,3-4c1.4-0.9,3.1-1.4,4.9-1.4
		C151.6,30.1,153.7,31,155.3,32.7z"/>
	<path class="st0" d="M176.2,49.1v4.1h-2.9c-2.4,0-4.3-0.6-5.5-1.8c-1.2-1.2-1.9-3.1-1.9-5.8V34.5h-3.3v-4h3.3v-5.6h4.7v5.6h5.5v4
		h-5.5v11.2c0,1.3,0.2,2.2,0.7,2.7c0.5,0.5,1.3,0.7,2.5,0.7H176.2z"/>
	<path class="st0" d="M189.5,30.5v22.7h-4.7V30.5H189.5z"/>
	<path class="st1" d="M216.7,31.6c1.6,0.9,2.8,2.3,3.6,4c0.9,1.8,1.3,3.8,1.3,6.2c0,2.4-0.4,4.5-1.3,6.2s-2.1,3.1-3.6,4
		c-1.6,0.9-3.3,1.4-5.3,1.4c-2.1,0-3.8-0.5-5.3-1.5c-1.5-1-2.5-2.4-3-4v5.3h-4.7V22.7h4.7v13.1c0.6-1.7,1.6-3,3-4
		c1.5-1,3.2-1.5,5.3-1.5C213.4,30.2,215.2,30.7,216.7,31.6z M206.5,35.3c-1,0.6-1.9,1.5-2.5,2.6c-0.6,1.1-0.9,2.5-0.9,3.9
		c0,1.5,0.3,2.8,0.9,4c0.6,1.1,1.4,2,2.5,2.6c1,0.6,2.2,0.9,3.5,0.9c2.1,0,3.8-0.7,5-2c1.3-1.3,1.9-3.2,1.9-5.5
		c0-2.3-0.6-4.1-1.9-5.5c-1.3-1.3-2.9-2-5-2C208.7,34.3,207.5,34.6,206.5,35.3z"/>
	<path class="st1" d="M231.8,30.5v22.7h-4.7V30.5H231.8z"/>
	<path class="st1" d="M256.2,31.6c1.8,0.9,3.1,2.3,4.1,4c1,1.8,1.5,3.8,1.5,6.2c0,2.4-0.5,4.5-1.5,6.2s-2.4,3.1-4.1,4
		c-1.8,0.9-3.7,1.4-5.9,1.4s-4.2-0.5-5.9-1.4c-1.7-0.9-3.1-2.3-4.1-4.1c-1-1.8-1.5-3.8-1.5-6.2c0-2.4,0.5-4.4,1.5-6.2
		c1-1.8,2.4-3.1,4.1-4c1.7-0.9,3.7-1.4,5.9-1.4S254.5,30.7,256.2,31.6z M247,35.1c-1,0.5-1.8,1.4-2.5,2.5c-0.6,1.1-0.9,2.5-0.9,4.2
		c0,1.7,0.3,3.1,0.9,4.2c0.6,1.1,1.4,2,2.5,2.5c1,0.5,2.1,0.8,3.3,0.8s2.3-0.3,3.3-0.8c1-0.5,1.8-1.4,2.5-2.5
		c0.6-1.1,0.9-2.5,0.9-4.2c0-1.6-0.3-3-0.9-4.2c-0.6-1.1-1.4-2-2.5-2.5c-1-0.5-2.1-0.8-3.3-0.8S248,34.6,247,35.1z"/>
</g>
<path class="st2" d="M26.5,57.9c0.2-0.2,0.3-0.4,0.5-0.6C26.8,57.5,26.6,57.7,26.5,57.9z"/>
<path class="st2" d="M27.5,56.8c-0.2,0.2-0.3,0.3-0.5,0.5C27.2,57.1,27.3,56.9,27.5,56.8z"/>
<path class="st2" d="M26.5,57.9c-0.2,0.2-0.3,0.4-0.5,0.6C26.1,58.3,26.3,58.1,26.5,57.9z"/>
<path class="st2" d="M28.2,56.2c-0.2,0.1-0.4,0.3-0.6,0.5C27.8,56.5,28,56.4,28.2,56.2z"/>
<path class="st3" d="M27,57.3C27,57.3,27,57.3,27,57.3C27,57.3,27,57.3,27,57.3z"/>
<path class="st3" d="M27.6,56.7c0,0-0.1,0.1-0.1,0.1C27.5,56.8,27.6,56.7,27.6,56.7z"/>
<path class="st3" d="M26.5,57.9C26.5,57.9,26.5,57.9,26.5,57.9C26.5,57.9,26.5,57.9,26.5,57.9z"/>
<circle class="st0" cx="187.1" cy="23.9" r="2.7"/>
<circle class="st1" cx="229.5" cy="23.9" r="2.7"/>
<g>
	<g>
		<path class="st4" d="M39.6,53.9c-0.6,0.4-1.2,0.8-1.8,1.2c3.6,1.5,6.1,5,6.1,9.1c0,0.1,0,0.2,0,0.2c2.3-1.1,4.5-2.6,6.5-4.5
			c3.1-3.1,5.2-6.8,6.2-10.7C51.5,52.6,45.5,54.2,39.6,53.9z"/>
		<path class="st5" d="M30,51.5c-0.1,0.1-0.1,0.2-0.2,0.2c-0.3,0.4-0.3,0.9,0,1.3c0.4,0.7,1.7,1.4,4,1.3l0,0c0.1,0,0.1,0,0.2,0
			c0.2,0,0.3,0,0.5,0c0.1,0,0.2,0,0.3,0c0.1,0,0.1,0,0.2,0c0.1,0,0.2,0,0.4,0c0,0,0.1,0,0.1,0c0.1,0,0.3,0,0.4,0.1c0,0,0,0,0.1,0
			c0.2,0,0.3,0.1,0.5,0.1c0,0,0,0,0,0c0.5,0.1,0.9,0.3,1.3,0.4c0.6-0.4,1.2-0.7,1.8-1.2C36.3,53.7,33,52.9,30,51.5z"/>
	</g>
	<path class="st0" d="M14.7,31.8c-1.5-8.1,0.7-16.7,6.6-23.1c-5,0.8-9.8,3-13.7,6.8C-2.3,25.3-2.5,41.1,7.1,51
		c2.5,2.6,5.4,4.5,8.5,5.7C10.4,49.3,10.1,39.5,14.7,31.8z"/>
	<path class="st4" d="M15.6,56.7c0.7,1,1.5,1.9,2.4,2.8c1.9,1.9,4,3.4,6.2,4.5c0-2.1,0.7-4,1.8-5.6c0,0,0,0,0,0
		C22.5,58.6,18.9,58,15.6,56.7z"/>
	<path class="st1" d="M60.3,8.1C49.9-2.5,32.8-2.7,22.2,7.7c-0.3,0.3-0.7,0.7-1,1C29,7.5,37.1,9.9,43,15.9c2.9,2.9,4.9,6.4,6,10.1
		c0.6,0.5,1.1,1,1.6,1.5c5.8,5.9,7.7,14.1,5.9,21.6c1.2-0.9,2.4-1.8,3.5-2.9C70.6,35.8,70.7,18.7,60.3,8.1z"/>
	<path class="st6" d="M50.6,27.5c-0.5-0.5-1.1-1-1.6-1.5c0,0,0,0,0,0c0,0,0,0,0,0c0.4,1.2,0.6,2.4,0.8,3.6c0,0,0,0,0,0
		c0.1,0.7,0.2,1.5,0.2,2.2c0,0,0,0,0,0c0,0,0,0,0,0c0.1,1.1,0.1,2.3,0,3.4c0,0,0,0,0,0c0,0,0,0,0,0c0,0.5-0.1,1-0.1,1.4c0,0,0,0,0,0
		c0,0.1,0,0.2,0,0.3c0,0,0,0,0,0c0,0.2-0.1,0.4-0.1,0.6c0,0,0,0,0,0c0,0.1,0,0.2-0.1,0.4c0,0,0,0,0,0c-0.1,0.4-0.1,0.8-0.2,1.1
		c0,0.1,0,0.2-0.1,0.3c0,0,0,0,0,0c-0.1,0.3-0.1,0.5-0.2,0.8c0,0.1,0,0.1-0.1,0.2c0,0,0,0,0,0c-0.2,0.7-0.4,1.3-0.7,2
		c-0.1,0.1-0.1,0.3-0.2,0.4c0,0,0,0,0,0c-0.1,0.3-0.2,0.6-0.4,0.8c-0.1,0.1-0.1,0.3-0.2,0.4c0,0,0,0,0,0c0,0.1-0.1,0.2-0.1,0.3
		c0,0,0,0,0,0c-0.1,0.3-0.2,0.5-0.4,0.7c0,0,0,0,0,0c-0.2,0.3-0.4,0.7-0.6,1c0,0,0,0.1,0,0.1c0,0,0,0,0,0c0,0.1-0.1,0.1-0.1,0.2l0,0
		c-0.2,0.3-0.4,0.6-0.6,0.9c0,0,0,0,0,0c-0.1,0.1-0.1,0.2-0.2,0.3c0,0,0,0,0,0c-0.2,0.2-0.3,0.5-0.5,0.7c0,0,0,0,0,0
		c-0.1,0.1-0.1,0.2-0.2,0.2c0,0,0,0,0,0c-0.2,0.3-0.4,0.6-0.7,0.8c-0.1,0.1-0.1,0.1-0.2,0.2c0,0,0,0,0,0c-0.2,0.2-0.4,0.5-0.6,0.7
		c0,0,0,0,0,0c-0.1,0.1-0.1,0.2-0.2,0.2c-0.3,0.3-0.5,0.6-0.8,0.8c-0.9,0.9-2,1.8-3,2.5c5.9,0.4,11.9-1.2,16.9-4.7
		C58.4,41.7,56.4,33.4,50.6,27.5z"/>
	<path class="st5" d="M21.1,44.9c-0.1-0.1-0.2-0.2-0.3-0.3c-0.2-0.2-0.4-0.4-0.5-0.6c-0.1-0.1-0.2-0.2-0.3-0.3
		c-0.2-0.2-0.3-0.4-0.5-0.7c-0.1-0.1-0.2-0.2-0.2-0.3c-0.2-0.3-0.4-0.6-0.6-0.9c-0.1-0.1-0.2-0.3-0.3-0.4c-0.1-0.2-0.2-0.4-0.3-0.6
		c-0.1-0.2-0.2-0.3-0.3-0.5c-0.1-0.2-0.2-0.3-0.3-0.5c-0.1-0.2-0.2-0.4-0.3-0.6c-0.1-0.1-0.1-0.2-0.2-0.3c-0.2-0.5-0.4-0.9-0.6-1.4
		c0,0,0-0.1-0.1-0.1c-0.1-0.3-0.2-0.5-0.3-0.8c0-0.1-0.1-0.1-0.1-0.2c-0.1-0.3-0.2-0.5-0.3-0.8c0,0,0,0,0-0.1
		c-0.4-1.2-0.7-2.5-1-3.7c-4.6,7.7-4.3,17.5,1,24.9c3.3,1.3,6.8,1.9,10.3,1.8c0,0,0,0,0,0c0.1-0.2,0.3-0.4,0.5-0.6c0,0,0,0,0,0
		c0.2-0.2,0.3-0.4,0.5-0.6c0,0,0,0,0,0c0.2-0.2,0.3-0.3,0.5-0.5c0,0,0.1-0.1,0.1-0.1c0.2-0.2,0.4-0.3,0.6-0.5
		c-0.5-0.4-1-0.9-1.3-1.5c-0.9-1.5-0.9-3.4,0-4.9c0,0,0-0.1,0.1-0.1c-1.8-1.1-3.4-2.4-4.9-4C21.7,45.5,21.4,45.2,21.1,44.9z"/>
	<circle class="st7" cx="34.1" cy="64.1" r="3"/>
	<g>
		<circle class="st8" cx="34.1" cy="35.9" r="5.6"/>
	</g>
	<g>
		<polygon class="st9" points="30.1,51.3 30.1,51.3 30.1,51.3 		"/>
		<path class="st10" d="M49,26C49,26,49,26,49,26C49,26,49,26,49,26c0.1,0.3,0.2,0.5,0.2,0.8C49.2,26.6,49.1,26.3,49,26
			c-1.1-3.7-3.1-7.1-6-10.1c-5.9-6-14-8.4-21.8-7.2c-5.9,6.4-8.1,15-6.6,23.1c1-1.6,2.2-3.2,3.6-4.6C26.8,18.9,40.1,18.5,49,26z"/>
		<path class="st9" d="M48.2,43.2c0,0,0,0.1-0.1,0.1c0.1-0.1,0.1-0.3,0.2-0.4c0-0.1,0.1-0.1,0.1-0.2c0,0.1-0.1,0.1-0.1,0.2
			C48.2,43,48.2,43.1,48.2,43.2z"/>
		<path class="st9" d="M46.5,46.5C46.5,46.4,46.5,46.4,46.5,46.5C46.5,46.4,46.5,46.4,46.5,46.5C46.5,46.5,46.5,46.5,46.5,46.5z"/>
		<polygon class="st9" points="27.2,49.3 27.2,49.3 27.2,49.3 		"/>
		<path class="st9" d="M32.2,50.5c0,0,0.1,0,0.1,0C32.2,50.5,32.2,50.5,32.2,50.5c-0.1,0-0.1,0-0.2,0c0,0,0,0,0,0
			C32.1,50.5,32.1,50.5,32.2,50.5z"/>
		<path class="st9" d="M45,48.6C45,48.6,45,48.6,45,48.6c-0.1,0.1-0.1,0.2-0.2,0.2C44.9,48.7,45,48.6,45,48.6z"/>
		<path class="st9" d="M49.4,39.5c0,0.1-0.1,0.2-0.1,0.4c0,0.1,0,0.1,0,0.2C49.3,39.8,49.4,39.6,49.4,39.5c0-0.2,0.1-0.3,0.1-0.5
			c0,0,0,0.1,0,0.1C49.4,39.2,49.4,39.4,49.4,39.5z"/>
		<path class="st9" d="M49.1,40.5c0,0.2-0.1,0.3-0.1,0.5C49,40.8,49.1,40.7,49.1,40.5c0-0.2,0.1-0.3,0.1-0.5c0,0.1-0.1,0.2-0.1,0.3
			C49.2,40.4,49.1,40.4,49.1,40.5z"/>
		<path class="st9" d="M47.2,45.2C47.2,45.2,47.2,45.2,47.2,45.2C47.2,45.2,47.2,45.2,47.2,45.2c0.1-0.2,0.3-0.5,0.4-0.7
			c0,0,0-0.1,0-0.1c0,0,0,0.1,0,0.1C47.5,44.7,47.3,44.9,47.2,45.2z"/>
		<path class="st9" d="M50.1,31.8C50.1,31.8,50.1,31.8,50.1,31.8C50.1,31.8,50.1,31.8,50.1,31.8c0-0.3-0.1-0.6-0.1-1
			C50,31.2,50.1,31.5,50.1,31.8C50.1,31.8,50.1,31.8,50.1,31.8z"/>
		<path class="st9" d="M49.5,27.7c0-0.2-0.1-0.4-0.2-0.6c0,0,0,0.1,0,0.1C49.4,27.3,49.4,27.5,49.5,27.7z"/>
		<path class="st9" d="M45.7,47.6c-0.1,0.1-0.2,0.3-0.3,0.4C45.5,47.9,45.6,47.8,45.7,47.6c0.1-0.1,0.1-0.2,0.2-0.3
			c0.2-0.2,0.3-0.5,0.5-0.7c-0.2,0.2-0.3,0.5-0.5,0.7C45.8,47.5,45.8,47.5,45.7,47.6z"/>
		<path class="st9" d="M47.8,43.9c0.1-0.2,0.2-0.4,0.3-0.6c-0.1,0.1-0.1,0.3-0.2,0.4C47.9,43.8,47.9,43.9,47.8,43.9z"/>
		<path class="st9" d="M49.8,29.5c0,0.1,0,0.2,0,0.3c0,0.2,0.1,0.5,0.1,0.7c0,0.1,0,0.1,0,0.2c-0.1-0.7-0.2-1.4-0.3-2
			c0,0.1,0,0.2,0.1,0.3C49.8,29.1,49.8,29.3,49.8,29.5z"/>
		<path class="st9" d="M49.6,28.5c0-0.2-0.1-0.4-0.1-0.6c0,0.1,0,0.1,0,0.2C49.6,28.2,49.6,28.4,49.6,28.5z"/>
		<path class="st9" d="M50.1,33c0,0.1,0,0.1,0,0.2C50.1,33.1,50.1,33.1,50.1,33z"/>
		<path class="st9" d="M30.6,50.9C30.6,51,30.6,51,30.6,50.9C30.6,51,30.6,51,30.6,50.9C30.6,51,30.6,51,30.6,50.9
			C30.6,51,30.6,51,30.6,50.9z"/>
		<path class="st9" d="M32,50.5c0,0-0.1,0-0.1,0c0,0-0.1,0-0.1,0c0,0,0.1,0,0.1,0C31.9,50.5,32,50.5,32,50.5z"/>
		<path class="st9" d="M50.1,35.2C50.1,35.2,50.1,35.2,50.1,35.2C50.1,35.2,50.1,35.2,50.1,35.2C50.1,35.2,50.1,35.2,50.1,35.2z"/>
		<path class="st9" d="M30.9,50.8c0,0,0.1,0,0.1-0.1c0,0,0,0,0.1,0C31.1,50.7,31,50.8,30.9,50.8C30.9,50.8,30.9,50.8,30.9,50.8
			c-0.1,0.1-0.2,0.1-0.2,0.1c0,0,0,0,0,0C30.8,50.9,30.8,50.8,30.9,50.8C30.9,50.8,30.9,50.8,30.9,50.8z"/>
		<polygon class="st9" points="49.7,38 49.7,38 49.7,38 		"/>
		<path class="st9" d="M43.9,49.9c0.1-0.1,0.2-0.2,0.3-0.3c0,0,0-0.1,0.1-0.1c0,0,0,0.1-0.1,0.1C44.1,49.7,44,49.8,43.9,49.9z"/>
		<path class="st9" d="M49.9,36.7C49.9,36.7,49.9,36.7,49.9,36.7c0,0.1,0,0.2,0,0.3c0,0.2-0.1,0.4-0.1,0.6c0,0,0,0,0,0
			c0,0.1,0,0.2,0,0.3c0-0.1,0-0.2,0-0.3c0-0.2,0.1-0.4,0.1-0.6C49.9,36.9,49.9,36.8,49.9,36.7c0.1-0.5,0.1-0.9,0.1-1.4c0,0,0,0,0,0
			c0,0,0,0,0,0C50,35.8,50,36.2,49.9,36.7z"/>
		<path class="st9" d="M43.1,50.9c-0.2,0.2-0.3,0.3-0.5,0.5c0.3-0.3,0.5-0.5,0.8-0.8c0,0,0,0,0,0C43.3,50.6,43.2,50.8,43.1,50.9z"/>
		<path class="st9" d="M31.7,50.5c0,0-0.1,0-0.1,0c0,0,0,0-0.1,0c0,0,0,0,0.1,0C31.7,50.6,31.7,50.6,31.7,50.5z"/>
		<path class="st2" d="M50.1,33.2c0,0.4,0,0.7,0,1.1C50.1,33.9,50.1,33.5,50.1,33.2C50.1,33.2,50.1,33.2,50.1,33.2z"/>
		<path class="st2" d="M46.5,46.4c0,0,0-0.1,0.1-0.1c0,0,0-0.1,0-0.1c0.1-0.2,0.3-0.4,0.4-0.6c-0.1,0.2-0.3,0.5-0.4,0.7
			C46.6,46.3,46.6,46.3,46.5,46.4z"/>
		<path class="st2" d="M43.4,50.5c0,0,0.1-0.1,0.1-0.1c0,0,0.1-0.1,0.1-0.1c0.1-0.1,0.2-0.3,0.3-0.4c-0.1,0.1-0.2,0.3-0.3,0.4
			C43.5,50.4,43.5,50.5,43.4,50.5z"/>
		<path class="st2" d="M45,48.6L45,48.6c0.1-0.1,0.1-0.2,0.2-0.2c0.1-0.1,0.2-0.2,0.2-0.3c-0.1,0.1-0.2,0.2-0.2,0.3
			C45.2,48.4,45.1,48.5,45,48.6z"/>
		<path class="st2" d="M47.6,44.4c0-0.1,0.1-0.2,0.1-0.2c0,0,0,0,0,0c0-0.1,0.1-0.1,0.1-0.2c0,0.1-0.1,0.1-0.1,0.2
			C47.7,44.2,47.7,44.3,47.6,44.4z"/>
		<path class="st2" d="M26.9,49.8c0.1-0.2,0.2-0.3,0.3-0.5c0,0,0,0,0,0C27.1,49.5,27,49.6,26.9,49.8z"/>
		<path class="st2" d="M30.1,51.3C30,51.4,30,51.4,30.1,51.3C30,51.4,30.1,51.4,30.1,51.3C30.1,51.3,30.1,51.3,30.1,51.3z"/>
		<path class="st2" d="M30.1,51.3L30.1,51.3C30.1,51.3,30.1,51.3,30.1,51.3C30.1,51.3,30.1,51.3,30.1,51.3z"/>
		<path class="st2" d="M44.3,49.5C44.3,49.5,44.3,49.4,44.3,49.5C44.3,49.5,44.3,49.5,44.3,49.5C44.3,49.5,44.3,49.5,44.3,49.5z"/>
		<path class="st2" d="M44.4,49.4c0.2-0.2,0.3-0.4,0.5-0.6C44.7,49,44.5,49.2,44.4,49.4C44.4,49.4,44.4,49.4,44.4,49.4z"/>
		<path class="st2" d="M30.6,50.9C30.6,50.9,30.6,50.9,30.6,50.9C30.6,50.9,30.7,50.9,30.6,50.9C30.7,50.9,30.6,50.9,30.6,50.9z"/>
		<path class="st2" d="M30.7,50.9C30.7,50.9,30.7,50.9,30.7,50.9C30.7,50.9,30.7,50.9,30.7,50.9C30.7,50.9,30.7,50.9,30.7,50.9z"/>
		<path class="st2" d="M47.2,45.2C47.2,45.2,47.2,45.2,47.2,45.2c0,0.1-0.1,0.2-0.1,0.3C47.1,45.4,47.1,45.3,47.2,45.2z"/>
		<path class="st2" d="M49.7,38c0,0,0-0.1,0-0.1C49.7,37.9,49.7,38,49.7,38C49.7,38,49.7,38,49.7,38z"/>
		<path class="st2" d="M49.7,38C49.7,38,49.7,38,49.7,38c-0.1,0.3-0.1,0.7-0.2,1C49.6,38.7,49.7,38.3,49.7,38z"/>
		<path class="st2" d="M31.8,50.5C31.8,50.5,31.7,50.5,31.8,50.5C31.7,50.5,31.8,50.5,31.8,50.5C31.8,50.5,31.8,50.5,31.8,50.5z"/>
		<path class="st2" d="M46.5,46.5C46.5,46.5,46.5,46.5,46.5,46.5c0,0.1-0.1,0.1-0.1,0.2C46.4,46.6,46.4,46.5,46.5,46.5z"/>
		<path class="st2" d="M48.4,42.5c0-0.1,0.1-0.1,0.1-0.2c-0.1,0.1-0.1,0.3-0.2,0.4C48.4,42.6,48.4,42.6,48.4,42.5z"/>
		<path class="st2" d="M31.5,50.6C31.5,50.6,31.5,50.6,31.5,50.6C31.5,50.6,31.5,50.6,31.5,50.6C31.5,50.6,31.5,50.6,31.5,50.6z"/>
		<path class="st2" d="M50,30.8c0,0,0-0.1,0-0.1C50,30.8,50,30.8,50,30.8C50,30.8,50,30.8,50,30.8z"/>
		<path class="st2" d="M50.1,35.3C50.1,35.3,50.1,35.3,50.1,35.3C50.1,35.3,50.1,35.3,50.1,35.3C50.1,35.3,50.1,35.3,50.1,35.3z"/>
		<path class="st2" d="M49.7,28.6C49.7,28.6,49.7,28.5,49.7,28.6C49.7,28.6,49.7,28.6,49.7,28.6C49.7,28.7,49.7,28.6,49.7,28.6z"/>
		<path class="st2" d="M50.1,33c0-0.4,0-0.7,0-1.1C50.1,32.3,50.1,32.6,50.1,33C50.1,33,50.1,33,50.1,33z"/>
		<path class="st2" d="M50.1,31.8C50.1,31.8,50.1,31.8,50.1,31.8C50.1,31.9,50.1,31.9,50.1,31.8C50.1,31.9,50.1,31.9,50.1,31.8z"/>
		<path class="st2" d="M30.3,51.1C30.4,51.1,30.4,51.1,30.3,51.1c0.1-0.1,0.1-0.1,0.2-0.1c0,0,0,0,0.1,0c0,0,0,0-0.1,0
			C30.5,51,30.4,51.1,30.3,51.1C30.4,51.1,30.4,51.1,30.3,51.1C30.3,51.1,30.3,51.2,30.3,51.1c-0.1,0.1-0.1,0.1-0.1,0.1
			C30.2,51.2,30.2,51.2,30.3,51.1C30.3,51.2,30.3,51.1,30.3,51.1z"/>
		<path class="st2" d="M49.3,26.9C49.3,26.9,49.3,26.8,49.3,26.9c0,0,0,0.1,0,0.2C49.3,27,49.3,26.9,49.3,26.9z"/>
		<path class="st2" d="M31.4,50.6C31.4,50.6,31.3,50.7,31.4,50.6c-0.1,0-0.1,0-0.2,0.1c0,0,0,0-0.1,0c0,0,0,0,0.1,0
			C31.3,50.7,31.3,50.7,31.4,50.6z"/>
		<path class="st2" d="M49.5,27.7C49.5,27.7,49.5,27.7,49.5,27.7c0,0,0,0.1,0,0.1C49.5,27.8,49.5,27.8,49.5,27.7z"/>
	</g>
	<path class="st11" d="M50.1,33c0-0.4,0-0.7,0-1.1c0,0,0,0,0-0.1c0,0,0,0,0,0c0,0,0,0,0,0c0-0.3,0-0.6-0.1-1c0,0,0-0.1,0-0.1
		c0-0.1,0-0.1,0-0.2c0-0.2-0.1-0.5-0.1-0.7c0-0.1,0-0.2,0-0.3c0-0.2-0.1-0.3-0.1-0.5c0-0.1,0-0.2-0.1-0.3c0-0.1,0-0.1,0-0.2
		c0-0.1-0.1-0.3-0.1-0.4c0-0.1,0-0.1,0-0.2c0-0.1,0-0.1-0.1-0.2c0-0.2-0.1-0.3-0.1-0.5c0,0,0-0.1,0-0.1c0-0.1,0-0.1-0.1-0.2
		c-0.1-0.3-0.1-0.5-0.2-0.8c0,0,0,0,0,0c0,0,0,0,0,0c-8.9-7.5-22.2-7.2-30.7,1.2c-1.4,1.4-2.6,3-3.6,4.6c0.2,1.3,0.6,2.5,1,3.7
		c0,0,0,0,0,0.1c0.1,0.3,0.2,0.5,0.3,0.8c0,0.1,0.1,0.1,0.1,0.2c0.1,0.3,0.2,0.5,0.3,0.8c0,0,0,0.1,0.1,0.1c0.2,0.5,0.4,0.9,0.6,1.4
		c0.1,0.1,0.1,0.2,0.2,0.3c0.1,0.2,0.2,0.4,0.3,0.6c0.1,0.2,0.2,0.3,0.3,0.5c0.1,0.2,0.2,0.3,0.3,0.5c0.1,0.2,0.2,0.4,0.3,0.6
		c0.1,0.1,0.2,0.3,0.3,0.4c0.2,0.3,0.4,0.6,0.6,0.9c0.1,0.1,0.2,0.2,0.2,0.3c0.2,0.2,0.3,0.4,0.5,0.7c0.1,0.1,0.2,0.2,0.3,0.3
		c0.2,0.2,0.4,0.4,0.5,0.6c0.1,0.1,0.2,0.2,0.3,0.3c0.3,0.3,0.5,0.6,0.8,0.9c1.5,1.6,3.2,2.9,4.9,4c0.1-0.2,0.2-0.3,0.3-0.5
		c0,0,0,0,0,0c0,0,0,0,0,0c0,0,0,0,0,0c0.1-0.1,0.2-0.3,0.4-0.4c-4.8-2.4-8.1-7.3-8.1-13.1c0-8,6.5-14.6,14.6-14.6
		s14.6,6.5,14.6,14.6s-6.5,14.6-14.6,14.6c-0.1,0-0.1,0-0.2,0l0,0c0,0-0.1,0-0.1,0c-0.2,0-0.3,0-0.5,0c-0.1,0-0.2,0-0.3,0
		c0,0-0.1,0-0.1,0c-0.1,0-0.1,0-0.2,0c0,0-0.1,0-0.1,0c-0.1,0-0.1,0-0.2,0c0,0-0.1,0-0.1,0c-0.1,0-0.1,0-0.2,0c0,0,0,0,0,0
		c0,0-0.1,0-0.1,0c0,0-0.1,0-0.1,0c0,0-0.1,0-0.1,0c0,0-0.1,0-0.1,0c0,0,0,0-0.1,0c0,0-0.1,0-0.1,0c0,0-0.1,0-0.1,0
		c-0.1,0-0.1,0-0.2,0.1c0,0,0,0-0.1,0c0,0,0,0-0.1,0c0,0-0.1,0-0.1,0.1c0,0-0.1,0-0.1,0c0,0-0.1,0-0.1,0.1c0,0-0.1,0-0.1,0
		c0,0,0,0,0,0c0,0,0,0-0.1,0c0,0,0,0,0,0c0,0,0,0-0.1,0c0,0-0.1,0-0.1,0.1c0,0-0.1,0-0.1,0.1c0,0,0,0-0.1,0.1c0,0,0,0-0.1,0.1
		c0,0,0,0-0.1,0.1c0,0,0,0-0.1,0.1c0,0,0,0,0,0c0,0,0,0-0.1,0.1c0,0,0,0-0.1,0.1c0,0,0,0,0,0c3.1,1.4,6.3,2.2,9.6,2.4
		c1-0.7,2-1.6,3-2.5c0.2-0.2,0.3-0.3,0.5-0.5c0.1-0.1,0.2-0.2,0.3-0.3c0,0,0,0,0,0c0.1-0.1,0.1-0.2,0.2-0.2c0.1-0.1,0.2-0.3,0.3-0.4
		c0.1-0.1,0.2-0.2,0.3-0.3c0,0,0-0.1,0.1-0.1c0,0,0-0.1,0.1-0.1c0.2-0.2,0.3-0.4,0.5-0.6c0.1-0.1,0.1-0.2,0.2-0.2
		c0.1-0.1,0.1-0.2,0.2-0.2c0.1-0.1,0.2-0.2,0.2-0.3c0.1-0.1,0.2-0.3,0.3-0.4c0.1-0.1,0.1-0.2,0.2-0.3c0.2-0.2,0.3-0.5,0.5-0.7
		c0-0.1,0.1-0.1,0.1-0.2c0,0,0-0.1,0.1-0.1c0,0,0-0.1,0.1-0.1c0.1-0.2,0.3-0.5,0.4-0.7c0.1-0.1,0.1-0.2,0.1-0.3c0,0,0,0,0-0.1
		c0.1-0.2,0.3-0.5,0.4-0.7c0,0,0-0.1,0-0.1c0-0.1,0.1-0.2,0.1-0.2c0-0.1,0.1-0.1,0.1-0.2c0-0.1,0.1-0.1,0.1-0.2
		c0.1-0.1,0.1-0.3,0.2-0.4c0,0,0-0.1,0.1-0.1c0-0.1,0.1-0.2,0.1-0.3c0-0.1,0.1-0.1,0.1-0.2c0.1-0.1,0.1-0.3,0.2-0.4
		c0.1-0.1,0.1-0.3,0.2-0.4c0.1-0.3,0.2-0.6,0.3-0.9c0.1-0.2,0.1-0.3,0.1-0.5c0-0.1,0-0.1,0.1-0.2c0-0.1,0.1-0.2,0.1-0.3
		c0-0.1,0-0.1,0-0.2c0-0.1,0.1-0.2,0.1-0.4c0-0.1,0.1-0.2,0.1-0.3c0,0,0-0.1,0-0.1c0.1-0.3,0.1-0.7,0.2-1c0,0,0,0,0,0
		c0,0,0-0.1,0-0.1c0-0.1,0-0.2,0-0.3c0,0,0,0,0,0c0-0.2,0.1-0.4,0.1-0.6c0-0.1,0-0.2,0-0.3c0,0,0,0,0,0c0.1-0.5,0.1-0.9,0.1-1.4
		c0,0,0,0,0,0c0,0,0,0,0,0c0,0,0,0,0,0c0,0,0,0,0,0c0-0.2,0-0.5,0-0.7c0-0.1,0-0.1,0-0.2c0-0.4,0-0.7,0-1.1
		C50.1,33.1,50.1,33.1,50.1,33z"/>
</g>
</svg>
