<svg width="308" height="30" viewBox="0 0 308 30" fill="none" xmlns="http://www.w3.org/2000/svg">
<path d="M33.2603 26.6457C30.3176 26.6457 28.677 23.8592 28.677 18.8175C28.677 13.6978 30.3176 10.9894 33.2603 10.9894C36.203 10.9894 37.8437 13.7394 37.8437 18.8175C37.8385 23.9373 36.1978 26.6457 33.2603 26.6457ZM33.2603 8.89046C27.2655 8.89046 23.9426 13.3592 23.9426 18.8175C23.9426 24.2759 27.2655 28.7446 33.2603 28.7446C39.2551 28.7446 42.578 24.2759 42.578 18.8175C42.578 13.3592 39.2551 8.89046 33.2603 8.89046ZM74.9166 8.89046C72.0885 8.89046 70.526 10.1144 69.6458 11.6769H69.4166V9.27067H64.9114V28.3644H69.4166V16.0311C69.4166 13.2082 70.8697 11.5623 73.1978 11.5623C75.453 11.5623 76.4426 13.0519 76.4426 15.3071V28.3644H80.9478V15.2655C80.953 11.3332 78.8905 8.89046 74.9166 8.89046ZM91.1822 8.89046C87.0208 8.89046 83.8905 10.6457 83.8905 14.3905C83.8905 17.5623 86.0676 19.2811 88.5103 19.8905L92.328 20.8436C94.3541 21.3384 95.2707 22.0675 95.2707 23.6717C95.2707 25.6196 93.8957 26.729 91.4895 26.729C88.8905 26.729 87.5572 25.4686 87.1353 22.3019L83.0885 23.4478C83.3176 26.7342 86.3749 28.755 90.9947 28.755C96.151 28.755 98.9374 26.3488 98.9374 22.5311C98.9374 18.9425 96.453 17.453 93.8593 16.8019L90.1926 15.8853C88.3593 15.4269 87.5572 14.5884 87.5572 13.3644C87.5572 11.8384 88.8541 10.9217 90.802 10.9217C93.0937 10.9217 94.5051 12.1821 94.6978 14.5884L98.5155 13.4425C98.0572 10.7603 95.4218 8.89046 91.1822 8.89046ZM110.125 26.6457C107.182 26.6457 105.542 23.8592 105.542 18.8175C105.542 13.6978 107.182 10.9894 110.125 10.9894C113.068 10.9894 114.708 13.7394 114.708 18.8175C114.708 23.9373 113.062 26.6457 110.125 26.6457ZM110.125 8.89046C104.13 8.89046 100.807 13.3592 100.807 18.8175C100.807 24.2759 104.13 28.7446 110.125 28.7446C116.12 28.7446 119.443 24.2759 119.443 18.8175C119.443 13.3592 116.12 8.89046 110.125 8.89046ZM132.12 8.89046C129.292 8.89046 127.729 10.1144 126.849 11.6769H126.62V9.27067H122.114V28.3644H126.62V16.0311C126.62 13.2082 128.073 11.5623 130.401 11.5623C132.656 11.5623 133.646 13.0519 133.646 15.3071V28.3644H138.151V15.2655C138.151 11.3332 136.088 8.89046 132.12 8.89046ZM199.057 26.6457C196.114 26.6457 194.474 23.8592 194.474 18.8175C194.474 13.6978 196.114 10.9894 199.057 10.9894C202 10.9894 203.641 13.7394 203.641 18.8175C203.641 23.9373 201.995 26.6457 199.057 26.6457ZM199.057 8.89046C193.062 8.89046 189.739 13.3592 189.739 18.8175C189.739 24.2759 193.062 28.7446 199.057 28.7446C205.052 28.7446 208.375 24.2759 208.375 18.8175C208.375 13.3592 205.052 8.89046 199.057 8.89046ZM240.713 8.89046C237.885 8.89046 236.323 10.1144 235.443 11.6769H235.213V9.27067H230.708V28.3644H235.213V16.0311C235.213 13.2082 236.667 11.5623 238.995 11.5623C241.25 11.5623 242.239 13.0519 242.239 15.3071V28.3644H246.745V15.2655C246.75 11.3332 244.687 8.89046 240.713 8.89046ZM256.984 8.89046C252.823 8.89046 249.693 10.6457 249.693 14.3905C249.693 17.5623 251.87 19.2811 254.312 19.8905L258.13 20.8436C260.156 21.3384 261.073 22.0675 261.073 23.6717C261.073 25.6196 259.698 26.729 257.292 26.729C254.693 26.729 253.359 25.4686 252.937 22.3019L248.891 23.4478C249.12 26.7342 252.177 28.755 256.797 28.755C261.953 28.755 264.739 26.3488 264.739 22.5311C264.739 18.9425 262.255 17.453 259.661 16.8019L255.995 15.8853C254.161 15.4269 253.359 14.5884 253.359 13.3644C253.359 11.8384 254.656 10.9217 256.604 10.9217C258.896 10.9217 260.307 12.1821 260.5 14.5884L264.318 13.4425C263.854 10.7603 261.219 8.89046 256.984 8.89046ZM275.922 26.6457C272.979 26.6457 271.338 23.8592 271.338 18.8175C271.338 13.6978 272.979 10.9894 275.922 10.9894C278.865 10.9894 280.505 13.7394 280.505 18.8175C280.505 23.9373 278.859 26.6457 275.922 26.6457ZM275.922 8.89046C269.927 8.89046 266.604 13.3592 266.604 18.8175C266.604 24.2759 269.927 28.7446 275.922 28.7446C281.917 28.7446 285.239 24.2759 285.239 18.8175C285.239 13.3592 281.917 8.89046 275.922 8.89046ZM297.917 8.89046C295.088 8.89046 293.526 10.1144 292.646 11.6769H292.417V9.27067H287.911V28.3644H292.417V16.0311C292.417 13.2082 293.87 11.5623 296.198 11.5623C298.453 11.5623 299.443 13.0519 299.443 15.3071V28.3644H303.948V15.2655C303.948 11.3332 301.885 8.89046 297.917 8.89046ZM21.2708 1.63525H16.5364V21.3748C16.5364 24.5832 15.3124 26.4894 12.4114 26.4894C9.54679 26.4894 8.28638 24.4634 8.28638 20.9894V17.3228L3.552 18.505V20.1457C3.552 25.1457 6.03638 28.9686 12.4114 28.9686C18.7864 28.9686 21.2708 25.1509 21.2708 20.1457V1.63525ZM49.7551 1.63525H45.2499V28.3644H49.7551V16.0311C49.7551 13.2082 51.2083 11.5623 53.5364 11.5623C55.7916 11.5623 56.7812 13.0519 56.7812 15.3071V28.3644H61.2864V15.2655C61.2864 11.3332 59.2239 8.89046 55.2551 8.89046C52.427 8.89046 50.8645 10.1144 49.9843 11.6769H49.7551V1.63525ZM187.068 1.63525H182.333V21.3748C182.333 24.5832 181.109 26.4894 178.208 26.4894C175.344 26.4894 174.083 24.4634 174.083 20.9894V17.3228L169.349 18.505V20.1457C169.349 25.1457 171.833 28.9686 178.208 28.9686C184.583 28.9686 187.068 25.1509 187.068 20.1457V1.63525ZM215.552 1.63525H211.047V28.3644H215.552V16.0311C215.552 13.2082 217.005 11.5623 219.333 11.5623C221.588 11.5623 222.578 13.0519 222.578 15.3071V28.3644H227.083V15.2655C227.083 11.3332 225.021 8.89046 221.052 8.89046C218.224 8.89046 216.661 10.1144 215.781 11.6769H215.552V1.63525ZM153.005 26.1873C149.338 26.1873 147.088 23.2082 147.088 20.0415C147.088 18.0571 147.969 16.2238 149.417 15.1925L158.047 24.6248C156.443 25.578 154.646 26.1873 153.005 26.1873ZM161.406 21.4894L153.922 13.2394C155.26 12.703 156.557 12.5155 157.625 12.5155C160.719 12.5155 162.625 14.3123 162.625 17.4061C162.63 18.7811 162.245 20.1925 161.406 21.4894ZM152.891 12.1353L151.25 10.3019C149.797 8.69776 149.38 7.70296 149.38 6.52067C149.38 4.30713 150.792 3.04671 153.005 3.04671C155.26 3.04671 156.594 4.34359 156.594 6.71338C156.594 8.89046 155.526 10.953 152.891 12.1353ZM153.12 1.02588C147.849 1.02588 145.255 3.96859 145.255 7.63005C145.255 9.61442 146.094 11.604 148.312 14.005L148.349 14.0832C144.609 15.88 142.891 18.7811 142.891 21.7603C142.891 25.6925 145.906 28.979 150.568 28.979C153.239 28.979 156.37 27.8696 159.198 25.8853L161.489 28.3696H167.484V28.1769L162.599 22.7915C164.661 20.3488 165.844 17.6769 165.844 15.3436C165.844 12.4425 163.896 10.4946 160.844 10.4946C159.24 10.4946 157.443 10.953 156.26 11.4113L156.182 11.2603C159.083 9.69255 160.307 8.24463 160.307 6.21859C160.297 3.31755 157.703 1.02588 153.12 1.02588Z" fill="#EB1700"/>
</svg>
