<svg xmlns="http://www.w3.org/2000/svg" width="145" height="57.992" viewBox="0 0 145 57.992"><g transform="translate(-18.9 -7.492)"><g transform="translate(18.9 60.049)"><path d="M20.361,213.013H18.9V212.5h3.512v.513H20.951v3.717h-.59Z" transform="translate(-18.9 -212.5)" fill="#2d5499"></path><path d="M34.426,212.5h.59v1.82h0a1.207,1.207,0,0,1,1.128-.692c.718,0,1.051.385,1.051,1.179v1.948H36.6v-1.82c0-.436-.1-.769-.59-.769a1.015,1.015,0,0,0-.974.743,1.993,1.993,0,0,0-.051.41v1.436H34.4V212.5Z" transform="translate(-30.426 -212.5)" fill="#2d5499"></path><path d="M49.164,216.9a1.287,1.287,0,0,1,1.307,1.436c0,.077-.026.256-.026.256h-2.23a.994.994,0,0,0,1.051,1,1.458,1.458,0,0,0,.9-.359l.231.436a1.84,1.84,0,0,1-1.179.436,1.6,1.6,0,0,1-.051-3.2Zm.743,1.231a.719.719,0,0,0-.743-.769.9.9,0,0,0-.9.769Z" transform="translate(-40.242 -215.772)" fill="#2d5499"></path><path d="M61.6,217.126h.564v.769h0a1.039,1.039,0,0,1,.974-.795h.154v.59a.626.626,0,0,0-.179-.026.887.887,0,0,0-.846.718,1.951,1.951,0,0,0-.077.538v1.256H61.6Z" transform="translate(-50.653 -215.921)" fill="#2d5499"></path><path d="M71.32,218.1h.128v-.051a.6.6,0,0,0-.667-.667,1.528,1.528,0,0,0-.846.308l-.231-.436a1.892,1.892,0,0,1,1.128-.359,1.075,1.075,0,0,1,1.2,1.179V220H71.5v-.513h0a1.067,1.067,0,0,1-.974.59.943.943,0,0,1-1.025-.923C69.5,218.156,70.833,218.1,71.32,218.1Zm-.667,1.513a.932.932,0,0,0,.82-.974v-.1H71.32c-.436,0-1.231.026-1.231.59A.509.509,0,0,0,70.654,219.617Z" transform="translate(-56.528 -215.772)" fill="#2d5499"></path><path d="M82.8,216.977h.538v.487h0a1.1,1.1,0,0,1,1.025-.564c.82,0,1.333.641,1.333,1.589a1.423,1.423,0,0,1-1.384,1.589,1.039,1.039,0,0,1-.923-.487h0v1.615H82.8Zm1.436,2.615c.487,0,.872-.385.872-1.1,0-.667-.359-1.077-.872-1.077-.461,0-.872.308-.872,1.1C83.39,219.053,83.672,219.592,84.236,219.592Z" transform="translate(-66.418 -215.772)" fill="#2d5499"></path><path d="M97.464,216.9a1.287,1.287,0,0,1,1.307,1.436c0,.077-.026.256-.026.256h-2.23a.994.994,0,0,0,1.051,1,1.458,1.458,0,0,0,.9-.359l.231.436a1.84,1.84,0,0,1-1.179.436,1.6,1.6,0,0,1-.051-3.2Zm.743,1.231a.719.719,0,0,0-.743-.769.9.9,0,0,0-.9.769Z" transform="translate(-76.16 -215.772)" fill="#2d5499"></path><path d="M109.8,217.2h.59v1.82c0,.41.077.769.564.769a1.057,1.057,0,0,0,1-1.154V217.2h.59v3.025h-.564v-.641h0a1.207,1.207,0,0,1-1.128.692c-.692,0-1.051-.359-1.051-1.179Z" transform="translate(-86.496 -215.995)" fill="#2d5499"></path><path d="M123.385,215.233H123v-.461h.41V213.9h.564v.872h.743v.461h-.743v1.359a.608.608,0,0,0,.641.692h.128v.513h-.205a1.062,1.062,0,0,1-1.179-1.128v-1.436Z" transform="translate(-96.312 -213.541)" fill="#2d5499"></path><path d="M132.4,212.5h.59v.59h-.59Zm0,1.2h.59v3.025h-.59Z" transform="translate(-103.303 -212.5)" fill="#2d5499"></path><path d="M139.113,216.9a1.582,1.582,0,0,1,1.154.436l-.282.41a1.247,1.247,0,0,0-.846-.359,1.031,1.031,0,0,0-1.051,1.077,1.058,1.058,0,0,0,1.077,1.1,1.421,1.421,0,0,0,.949-.41l.231.436a1.628,1.628,0,0,1-1.2.487,1.578,1.578,0,0,1-1.641-1.589A1.527,1.527,0,0,1,139.113,216.9Z" transform="translate(-107.093 -215.772)" fill="#2d5499"></path><path d="M150.456,219.233a1.27,1.27,0,0,0,.872.359c.256,0,.513-.128.513-.385,0-.564-1.564-.436-1.564-1.436,0-.564.487-.872,1.1-.872a1.353,1.353,0,0,1,.974.333l-.231.436a1.117,1.117,0,0,0-.743-.282c-.256,0-.487.1-.487.385,0,.538,1.564.436,1.564,1.436,0,.513-.436.9-1.1.9a1.654,1.654,0,0,1-1.154-.436Z" transform="translate(-116.539 -215.772)" fill="#2d5499"></path><path d="M160.785,226.6h.59l-.513,1.231H160.4Z" transform="translate(-124.124 -222.985)" fill="#2d5499"></path><path d="M174.1,212.5h.59v4.23h-.59Z" transform="translate(-134.312 -212.5)" fill="#2d5499"></path><path d="M180.426,217.051h.564v.641h0a1.273,1.273,0,0,1,1.154-.692c.718,0,1.051.385,1.051,1.179v1.948h-.59v-1.82c0-.436-.1-.769-.59-.769a1.015,1.015,0,0,0-.974.743,1.992,1.992,0,0,0-.051.41v1.436h-.59v-3.076Z" transform="translate(-138.997 -215.846)" fill="#2d5499"></path><path d="M195.415,216.9a1.582,1.582,0,0,1,1.154.436l-.282.41a1.247,1.247,0,0,0-.846-.359,1.031,1.031,0,0,0-1.051,1.077,1.058,1.058,0,0,0,1.077,1.1,1.421,1.421,0,0,0,.949-.41l.231.436a1.628,1.628,0,0,1-1.2.487,1.578,1.578,0,0,1-1.641-1.589A1.556,1.556,0,0,1,195.415,216.9Z" transform="translate(-148.962 -215.772)" fill="#2d5499"></path><path d="M207.5,226.6h.615v.615H207.5Z" transform="translate(-159.15 -222.985)" fill="#2d5499"></path></g><path d="M34,90.3h3.435V70.812l8.639,9.742,8.716-9.742V90.3h3.333v-25H55.073L46.049,75.811,37.2,65.3H34Z" transform="translate(-11.229 -42.988)" fill="#2d5499"></path><path d="M248.246,65.3H233.3v25h15.331V87.27H236.889V79.349h11.049V76.2h-11.1V68.3h11.408Z" transform="translate(-159.435 -42.988)" fill="#2d5499"></path><path d="M308.5,65.3h3.435V87.27h11.793V90.3H308.5Z" transform="translate(-215.357 -42.988)" fill="#2d5499"></path><path d="M466,65.3h3.692v25h-3.538Z" transform="translate(-332.479 -42.988)" fill="#2d5499"></path><path d="M374.854,72.877l11-7.1a13.177,13.177,0,1,0,0,14.2Z" transform="translate(-254.844 -38.824)" fill="#2d5499"></path><g transform="translate(60.687 7.492)"><path d="M183.233,56.306a1.324,1.324,0,0,1-1.333-1.333V31.054a1.148,1.148,0,0,1,.1-.513l9.588-22.252a1.326,1.326,0,0,1,2.435,1.051l-9.486,22V55A1.281,1.281,0,0,1,183.233,56.306Z" transform="translate(-181.9 -7.492)" fill="#c85911"></path><path d="M207,27.957a1.148,1.148,0,0,1-.513-.1,1.338,1.338,0,0,1-.692-1.743l7.332-17.023a1.326,1.326,0,0,1,2.435,1.051l-7.332,17.023A1.334,1.334,0,0,1,207,27.957Z" transform="translate(-199.593 -8.087)" fill="#f0ceab"></path></g><g transform="translate(43.74 7.492)"><path d="M141.59,56.306a1.324,1.324,0,0,0,1.333-1.333V31.054a1.148,1.148,0,0,0-.1-.513L133.232,8.289A1.326,1.326,0,0,0,130.8,9.34l9.486,22V55A1.313,1.313,0,0,0,141.59,56.306Z" transform="translate(-126.872 -7.492)" fill="#c85911"></path><path d="M124.459,27.957a1.148,1.148,0,0,0,.513-.1,1.338,1.338,0,0,0,.692-1.743L118.332,9.089A1.326,1.326,0,0,0,115.9,10.14l7.332,17.023A1.334,1.334,0,0,0,124.459,27.957Z" transform="translate(-115.792 -8.087)" fill="#f0ceab"></path></g><g transform="translate(141.468 22.363)"><path d="M497,65.5h8.87c8.178,0,13.562,4.589,13.562,12.485,0,7.947-5.384,12.562-13.562,12.562H497Zm8.614,22.022c6.025,0,9.973-3.333,9.973-9.511,0-6.127-3.974-9.434-9.973-9.434h-4.845V87.522Z" transform="translate(-497 -65.5)" fill="#2d5499"></path></g></g></svg>